<?xml version="1.0" ?><svg id="Layer_1" style="enable-background:new 0 0 62 62;" version="1.1" viewBox="0 0 62 62" xml:space="preserve" xmlns="http://www.w3.org/2000/svg" xmlns:xlink="http://www.w3.org/1999/xlink"><style type="text/css">
	.st0{fill:#5FD2FF;}
	.st1{fill:#FFFFFF;}
	.st2{fill:#0082ED;}
	.st3{fill:#2BA8FC;}
	.st4{fill:#CECECE;}
	.st5{fill:#F92B75;}
	.st6{fill:#3BB0FF;}
	.st7{fill:#CE004F;}
	.st8{fill:none;stroke:#ED0C68;stroke-width:5;stroke-linecap:round;stroke-linejoin:round;stroke-miterlimit:10;}
	.st9{fill:#ED0C68;}
	.st10{fill:#78DED4;}
	.st11{fill:#1E5363;}
	.st12{fill:#54C8E8;}
	.st13{fill:#F4F4F4;}
	.st14{fill:#0C82EB;}
	.st15{fill:#00B2E3;}
	.st16{fill:#68A2B9;}
	.st17{fill:#A2C5D3;}
	.st18{fill:#76777A;}
	.st19{fill:#A7A8A9;}
	.st20{fill:#D6D6D6;}
	.st21{fill:none;stroke:#F92B75;stroke-width:5;stroke-linecap:round;stroke-linejoin:round;stroke-miterlimit:10;}
	.st22{fill:#FD4A5C;}
	.st23{fill:#FF8E9F;}
	.st24{fill:none;stroke:#F458A3;stroke-width:5;stroke-linecap:round;stroke-linejoin:round;stroke-miterlimit:10;}
	.st25{fill:#FFB259;}
	.st26{fill:#F32735;}
	.st27{fill:#FF9E18;}
	.st28{fill:#FFC27A;}
	.st29{fill:#FFC56D;}
	.st30{fill:none;stroke:#FD4A5C;stroke-width:5;stroke-linecap:round;stroke-linejoin:round;stroke-miterlimit:10;}
	.st31{fill:#0069A7;}
	.st32{fill:#D8D8D8;}
	.st33{fill:#8CB7C9;}
	.st34{fill:#65BAAF;}
	.st35{fill:#00AF9A;}
	.st36{fill:#00C4B3;}
	.st37{fill:#19D3C5;}
	.st38{fill:none;stroke:#54C8E8;stroke-width:5;stroke-linecap:round;stroke-linejoin:round;stroke-miterlimit:10;}
	.st39{fill:#8331A7;}
	.st40{fill:#009383;}
	.st41{fill:#98989A;}
	.st42{fill:#636569;}
	.st43{fill:#898A8D;}
	.st44{fill:#FFB548;}
	.st45{fill:none;stroke:#FFB548;stroke-width:5;stroke-linecap:round;stroke-linejoin:round;stroke-miterlimit:10;}
	.st46{fill:#ED40A9;}
	.st47{fill:#CB007B;}
	.st48{fill:#E50695;}
	.st49{fill:#D7282F;}
	.st50{fill:#E5E5E5;}
	.st51{fill:#FFA4B4;}
	.st52{fill:#F6A7D7;}
	.st53{fill:#F478C4;}
	.st54{fill:#E0C7E6;}
	.st55{fill:#B980D0;}
	.st56{fill:#D9B7E2;}
	.st57{fill:#BADF93;}
	.st58{fill:#4C9C2E;}
	.st59{fill:#3DAE2B;}
	.st60{fill:#AADA91;}
	.st61{fill:#6ABF4B;}
	.st62{fill:#EFB8A9;}
	.st63{fill:#FECB8B;}
	.st64{fill:#BDE8EF;}
	.st65{fill:#CCA1DD;}
	.st66{fill:#B2B2B2;}
	.st67{fill:none;stroke:#FF8300;stroke-width:5;stroke-linecap:round;stroke-linejoin:round;stroke-miterlimit:10;}
	.st68{fill:none;stroke:#FF9E18;stroke-width:5;stroke-linecap:round;stroke-linejoin:round;stroke-miterlimit:10;}
	.st69{fill:#96DAEA;}
	.st70{fill:#FF8300;}
	.st71{fill:none;stroke:#6ABF4B;stroke-width:5;stroke-linecap:round;stroke-linejoin:round;stroke-miterlimit:10;}
	.st72{fill:none;}
	.st73{fill:#444444;}
	.st74{fill:#FDCF85;}
</style><g><path class="st31" d="M46.55,26.79H24.76c-1.38,0-2.5-1.12-2.5-2.5s1.12-2.5,2.5-2.5h19.29v-8.4c0-2.24-0.87-4.35-2.46-5.94   C40.01,5.87,37.91,5,35.66,5c-1.44,0-2.79,0.34-4.03,1.02c-1.21,0.66-2.73,0.22-3.39-0.99c-0.66-1.21-0.22-2.73,0.99-3.39   C31.18,0.57,33.4,0,35.66,0c3.59,0,6.96,1.4,9.48,3.93c2.53,2.53,3.92,5.89,3.92,9.47v10.9C49.05,25.67,47.93,26.79,46.55,26.79z"/><path class="st14" d="M36.08,26.79H14.29c-1.38,0-2.5-1.12-2.5-2.5V13.4C11.79,6.01,17.8,0,25.19,0s13.4,6.01,13.4,13.4v10.9   C38.58,25.67,37.46,26.79,36.08,26.79z M16.79,21.79h16.79v-8.4c0-4.63-3.77-8.4-8.4-8.4s-8.4,3.77-8.4,8.4V21.79z"/><path class="st15" d="M14.84,12.48c-0.26,0-0.52-0.04-0.78-0.13c-1.31-0.43-2.02-1.85-1.59-3.16c1.5-4.54,5.33-7.96,10.01-8.92   c1.35-0.28,2.67,0.59,2.95,1.94c0.28,1.35-0.59,2.67-1.94,2.95c-2.93,0.6-5.33,2.75-6.27,5.59C16.87,11.81,15.89,12.48,14.84,12.48   z"/><polygon class="st32" points="58.55,59.5 13.56,59.5 16.6,18.34 55.5,18.34  "/><path class="st12" d="M58.55,62H13.56c-0.69,0-1.36-0.29-1.83-0.8c-0.47-0.51-0.71-1.19-0.66-1.89l3.04-41.16   c0.1-1.31,1.18-2.32,2.49-2.32h38.9c1.31,0,2.4,1.01,2.49,2.32l3.04,41.16c0.05,0.69-0.19,1.38-0.66,1.89   C59.91,61.71,59.24,62,58.55,62z M16.25,57h39.61l-2.67-36.16H18.92L16.25,57z"/><polygon class="st13" points="47.23,59.5 3.77,59.5 6.7,18.34 44.29,18.34  "/><path class="st12" d="M46.92,62H3.45c-0.69,0-1.36-0.29-1.83-0.8c-0.47-0.51-0.71-1.19-0.66-1.88L3.9,18.16   c0.09-1.31,1.18-2.32,2.49-2.32h37.59c1.31,0,2.4,1.01,2.49,2.32l2.94,41.16c0.05,0.69-0.19,1.37-0.66,1.88   C48.28,61.71,47.62,62,46.92,62z M6.14,57h38.1l-2.58-36.16H8.72L6.14,57z"/><path class="st15" d="M5.44,34.21c-0.06,0-0.12,0-0.18-0.01c-1.38-0.1-2.41-1.29-2.32-2.67L3.9,18.16   c0.09-1.31,1.18-2.32,2.49-2.32h11.66c1.38,0,2.5,1.12,2.5,2.5s-1.12,2.5-2.5,2.5H8.72L7.93,31.89C7.84,33.2,6.74,34.21,5.44,34.21   z"/></g></svg>